<?xml version="1.0" encoding="utf-8"?>
<!DOCTYPE svg PUBLIC "-//W3C//DTD SVG 1.1//EN" "http://www.w3.org/Graphics/SVG/1.1/DTD/svg11.dtd">
<svg xmlns="http://www.w3.org/2000/svg" xmlns:xlink="http://www.w3.org/1999/xlink" version="1.1" class="marks" width="626" height="610" viewBox="0 0 626 610"><rect width="626" height="610" fill="white"/><g fill="none" stroke-miterlimit="10" transform="translate(55,55)"><g class="mark-group role-frame root" role="graphics-object" aria-roledescription="group mark container"><g transform="translate(0,0)"><path class="background" aria-hidden="true" d="M0,0h500v500h-500Z"/><g><g class="mark-rule role-mark layer_0_layer_0_marks" role="graphics-object" aria-roledescription="rule mark container"><line aria-label="xcoord_1: 0; ycoord_1: 0; xcoord_2: 1; ycoord_2: 0; Branch: branch" role="graphics-symbol" aria-roledescription="rule mark" transform="translate(0,500)" x2="500" y2="0" stroke="gray" stroke-width="20" opacity="1"/><line aria-label="xcoord_1: 1; ycoord_1: 0; xcoord_2: 0.5; ycoord_2: 1; Branch: branch" role="graphics-symbol" aria-roledescription="rule mark" transform="translate(500,500)" x2="-250" y2="-500" stroke="gray" stroke-width="20" opacity="1"/><line aria-label="xcoord_1: 0; ycoord_1: 0; xcoord_2: 0.5; ycoord_2: 1; Branch: branch" role="graphics-symbol" aria-roledescription="rule mark" transform="translate(0,500)" x2="250" y2="-500" stroke="gray" stroke-width="20" opacity="1"/></g><g class="mark-symbol role-mark layer_0_layer_1_marks" role="graphics-object" aria-roledescription="symbol mark container"><path aria-label="mid_x: 0.5; mid_y: 0; power: 0.491455681687; angle: 90" role="graphics-symbol" aria-roledescription="point" transform="translate(250,500) rotate(90)" d="M0,-129.09944487358058L-27.95084971874737,64.54972243679028L27.95084971874737,64.54972243679028Z" fill="black" stroke-width="2" opacity="1"/><path aria-label="mid_x: 0.75; mid_y: 0.5; power: 0.46525251316; angle: 153.434948823" role="graphics-symbol" aria-roledescription="point" transform="translate(375,250) rotate(153.43494882292202)" d="M0,-125.6106776413193L-27.19550945599013,62.80533882065966L27.19550945599013,62.80533882065966Z" fill="black" stroke-width="2" opacity="1"/><path aria-label="mid_x: 0.25; mid_y: 0.5; power: 0.134810427885; angle: −153.434948823" role="graphics-symbol" aria-roledescription="point" transform="translate(125,250) rotate(-153.43494882292202)" d="M0,-67.61513791993639L-14.639106779763358,33.8075689599682L14.639106779763358,33.8075689599682Z" fill="black" stroke-width="2" opacity="1"/></g><g class="mark-symbol role-mark layer_1_marks" role="graphics-object" aria-roledescription="symbol mark container"><path aria-label="xcoord_1: 0; ycoord_1: 0; Bus: 1" role="graphics-symbol" aria-roledescription="circle" transform="translate(0,500)" d="M50,0A50,50,0,1,1,-50,0A50,50,0,1,1,50,0" fill="#9558B2" stroke-width="2" opacity="1"/><path aria-label="xcoord_1: 0.5; ycoord_1: 1; Bus: 2" role="graphics-symbol" aria-roledescription="circle" transform="translate(250,0)" d="M50,0A50,50,0,1,1,-50,0A50,50,0,1,1,50,0" fill="#389826" stroke-width="2" opacity="1"/><path aria-label="xcoord_1: 1; ycoord_1: 0; Bus: 3" role="graphics-symbol" aria-roledescription="circle" transform="translate(500,500)" d="M50,0A50,50,0,1,1,-50,0A50,50,0,1,1,50,0" fill="#CB3C33" stroke-width="2" opacity="1"/></g><g class="mark-group role-legend" role="graphics-symbol" aria-roledescription="legend" aria-label="Symbol legend titled 'Branch' for stroke color with 1 value: branch"><g transform="translate(518,0)"><path class="background" aria-hidden="true" d="M0,0h48v27h-48Z" pointer-events="none"/><g><g class="mark-group role-legend-entry"><g transform="translate(0,16)"><path class="background" aria-hidden="true" d="M0,0h0v0h0Z" pointer-events="none"/><g><g class="mark-group role-scope" role="graphics-object" aria-roledescription="group mark container"><g transform="translate(0,0)"><path class="background" aria-hidden="true" d="M0,0h48v11h-48Z" pointer-events="none" opacity="1"/><g><g class="mark-symbol role-legend-symbol" pointer-events="none"><path transform="translate(6,6)" d="M-5,0L5,0" stroke="gray" stroke-width="1.5" opacity="1"/></g><g class="mark-text role-legend-label" pointer-events="none"><text text-anchor="start" transform="translate(16,9)" font-family="sans-serif" font-size="10px" fill="#000" opacity="1">branch</text></g></g><path class="foreground" aria-hidden="true" d="" pointer-events="none" display="none"/></g></g></g><path class="foreground" aria-hidden="true" d="" pointer-events="none" display="none"/></g></g><g class="mark-text role-legend-title" pointer-events="none"><text text-anchor="start" transform="translate(0,9)" font-family="sans-serif" font-size="11px" font-weight="bold" fill="#000" opacity="1">Branch</text></g></g><path class="foreground" aria-hidden="true" d="" pointer-events="none" display="none"/></g></g><g class="mark-group role-legend" role="graphics-symbol" aria-roledescription="legend" aria-label="Symbol legend titled 'Bus' for fill color with 3 values: 1, 2, 3"><g transform="translate(518,35)"><path class="background" aria-hidden="true" d="M0,0h21v53h-21Z" pointer-events="none"/><g><g class="mark-group role-legend-entry"><g transform="translate(0,16)"><path class="background" aria-hidden="true" d="M0,0h0v0h0Z" pointer-events="none"/><g><g class="mark-group role-scope" role="graphics-object" aria-roledescription="group mark container"><g transform="translate(0,0)"><path class="background" aria-hidden="true" d="M0,0h21v11h-21Z" pointer-events="none" opacity="1"/><g><g class="mark-symbol role-legend-symbol" pointer-events="none"><path transform="translate(6,6)" d="M5,0A5,5,0,1,1,-5,0A5,5,0,1,1,5,0" fill="#9558B2" stroke-width="1.5" opacity="1"/></g><g class="mark-text role-legend-label" pointer-events="none"><text text-anchor="start" transform="translate(16,9)" font-family="sans-serif" font-size="10px" fill="#000" opacity="1">1</text></g></g><path class="foreground" aria-hidden="true" d="" pointer-events="none" display="none"/></g><g transform="translate(0,13)"><path class="background" aria-hidden="true" d="M0,0h21v11h-21Z" pointer-events="none" opacity="1"/><g><g class="mark-symbol role-legend-symbol" pointer-events="none"><path transform="translate(6,6)" d="M5,0A5,5,0,1,1,-5,0A5,5,0,1,1,5,0" fill="#389826" stroke-width="1.5" opacity="1"/></g><g class="mark-text role-legend-label" pointer-events="none"><text text-anchor="start" transform="translate(16,9)" font-family="sans-serif" font-size="10px" fill="#000" opacity="1">2</text></g></g><path class="foreground" aria-hidden="true" d="" pointer-events="none" display="none"/></g><g transform="translate(0,26)"><path class="background" aria-hidden="true" d="M0,0h21v11h-21Z" pointer-events="none" opacity="1"/><g><g class="mark-symbol role-legend-symbol" pointer-events="none"><path transform="translate(6,6)" d="M5,0A5,5,0,1,1,-5,0A5,5,0,1,1,5,0" fill="#CB3C33" stroke-width="1.5" opacity="1"/></g><g class="mark-text role-legend-label" pointer-events="none"><text text-anchor="start" transform="translate(16,9)" font-family="sans-serif" font-size="10px" fill="#000" opacity="1">3</text></g></g><path class="foreground" aria-hidden="true" d="" pointer-events="none" display="none"/></g></g></g><path class="foreground" aria-hidden="true" d="" pointer-events="none" display="none"/></g></g><g class="mark-text role-legend-title" pointer-events="none"><text text-anchor="start" transform="translate(0,9)" font-family="sans-serif" font-size="11px" font-weight="bold" fill="#000" opacity="1">Bus</text></g></g><path class="foreground" aria-hidden="true" d="" pointer-events="none" display="none"/></g></g></g><path class="foreground" aria-hidden="true" d="" display="none"/></g></g></g></svg>
