<svg xmlns="http://www.w3.org/2000/svg" xmlns:xlink="http://www.w3.org/1999/xlink" version="1.1" class="marks" width="605" height="530" viewBox="0 0 605 530"><rect width="605" height="530" fill="white"/><g fill="none" stroke-miterlimit="10" transform="translate(15,15)"><g class="mark-group role-frame root" role="graphics-object" aria-roledescription="group mark container"><g transform="translate(0,0)"><path class="background" aria-hidden="true" d="M0,0h500v500h-500Z"/><g><g class="mark-rule role-mark layer_0_layer_0_marks" role="graphics-object" aria-roledescription="rule mark container"><line aria-label="xcoord_1: 0.113542147581; ycoord_1: 1.05184049247; xcoord_2: −0.95775323826; ycoord_2: 0.520417097005; Branch: branch" role="graphics-symbol" aria-roledescription="rule mark" transform="translate(289.2807290910668,84.66461952851829)" x2="-192.54114956593338" y2="86.56144168613604" stroke="#3182BD" stroke-width="2" opacity="1"/><line aria-label="xcoord_1: 0.766060178938; ycoord_1: 0.0273910966192; xcoord_2: 0.113542147581; ycoord_2: 1.05184049247; Branch: branch" role="graphics-symbol" aria-roledescription="rule mark" transform="translate(406.5561076005173,251.53310404738914)" x2="-117.27537850945049" y2="-166.86848451887084" stroke="#3182BD" stroke-width="2" opacity="1"/><line aria-label="xcoord_1: −0.999902016789; ycoord_1: 0.493519504761; xcoord_2: −0.337139460053; ycoord_2: −0.545035618248; Branch: branch" role="graphics-symbol" aria-roledescription="rule mark" transform="translate(89.16428854745489,175.60730295590034)" x2="119.1166005657481" y2="169.166110270909" stroke="#3182BD" stroke-width="2" opacity="1"/><line aria-label="xcoord_1: 0.766060178938; ycoord_1: 0.0273910966192; xcoord_2: −0.294990681524; ycoord_2: −0.518138026004; Branch: branch" role="graphics-symbol" aria-roledescription="rule mark" transform="translate(406.5561076005173,251.53310404738914)" x2="-190.69992750963576" y2="88.85906743817424" stroke="#3182BD" stroke-width="2" opacity="1"/><line aria-label="xcoord_1: −0.915604459731; ycoord_1: 0.547314689248; xcoord_2: −0.252841902995; ycoord_2: −0.49124043376; Branch: branch" role="graphics-symbol" aria-roledescription="rule mark" transform="translate(104.31487050281193,166.8448194734084)" x2="119.11660056574813" y2="169.16611027090903" stroke="#3182BD" stroke-width="2" opacity="1"/><line aria-label="xcoord_1: −0.294990681524; ycoord_1: −0.518138026004; xcoord_2: 0.657616881508; ycoord_2: −1.03164696237; Branch: branch" role="graphics-symbol" aria-roledescription="rule mark" transform="translate(215.85618009088154,340.3921714855634)" x2="171.20969407273964" y2="83.64342674666182" stroke="#3182BD" stroke-width="2" opacity="1"/><line aria-label="xcoord_1: 0.766060178938; ycoord_1: 0.0273910966192; xcoord_2: 0.657616881508; ycoord_2: −1.03164696237; Branch: branch" role="graphics-symbol" aria-roledescription="rule mark" transform="translate(406.5561076005173,251.53310404738914)" x2="-19.49023343689612" y2="172.50249418483605" stroke="#3182BD" stroke-width="2" opacity="1"/></g><g class="mark-symbol role-mark layer_0_layer_1_marks" role="graphics-object" aria-roledescription="symbol mark container"><path aria-label="mid_x: −0.422105545339; mid_y: 0.786128794738; power: 0; angle: 63.6159752461" role="graphics-symbol" aria-roledescription="point" transform="translate(193.0101543081001,127.9453403715864) rotate(63.61597524611051)" d="M0,-24.152L-5.229,12.076L5.229,12.076Z" fill="black" stroke-width="2" opacity="0"/><path aria-label="mid_x: 0.43980116326; mid_y: 0.539615794546; power: 0; angle: 147.505100882" role="graphics-symbol" aria-roledescription="point" transform="translate(347.9184183457921,168.0988617879537) rotate(147.505100882395)" d="M0,-24.152L-5.229,12.076L5.229,12.076Z" fill="black" stroke-width="2" opacity="0"/><path aria-label="mid_x: −0.668520738421; mid_y: −0.0257580567434; power: 0; angle: −32.5443205992" role="graphics-symbol" aria-roledescription="point" transform="translate(148.72258883032893,260.1903580913548) rotate(-32.54432059920726)" d="M0,-24.152L-5.229,12.076L5.229,12.076Z" fill="black" stroke-width="2" opacity="0"/><path aria-label="mid_x: 0.235534748707; mid_y: −0.245373464692; power: 0; angle: 62.7904728468" role="graphics-symbol" aria-roledescription="point" transform="translate(311.20614384569944,295.96263776647623) rotate(62.79047284681563)" d="M0,-24.152L-5.229,12.076L5.229,12.076Z" fill="black" stroke-width="2" opacity="0"/><path aria-label="mid_x: −0.584223181363; mid_y: 0.0280371277439; power: 0; angle: −32.5443205992" role="graphics-symbol" aria-roledescription="point" transform="translate(163.873170785686,251.4278746088629) rotate(-32.54432059920726)" d="M0,-24.152L-5.229,12.076L5.229,12.076Z" fill="black" stroke-width="2" opacity="0"/><path aria-label="mid_x: 0.181313099992; mid_y: −0.774892494185; power: 0; angle: −61.6728410616" role="graphics-symbol" aria-roledescription="point" transform="translate(301.4610271272513,382.2138848588943) rotate(-61.672841061557406)" d="M0,-24.152L-5.229,12.076L5.229,12.076Z" fill="black" stroke-width="2" opacity="0"/><path aria-label="mid_x: 0.711838530223; mid_y: −0.502127932874; power: 0; angle: 5.84659114545" role="graphics-symbol" aria-roledescription="point" transform="translate(396.81099088206923,337.78435113980714) rotate(5.846591145454375)" d="M0,-24.152L-5.229,12.076L5.229,12.076Z" fill="black" stroke-width="2" opacity="0"/></g><g class="mark-rule role-mark layer_1_marks" role="graphics-object" aria-roledescription="rule mark container"><line aria-label="xcoord_1: −0.294990681524; ycoord_1: −0.518138026004; xcoord_2: −0.377716994498; ycoord_2: −1.06264658662; Connector: connector" role="graphics-symbol" aria-roledescription="rule mark" transform="translate(215.85618009088154,340.3921714855634)" x2="-14.868186318996322" y2="88.69283215462974" stroke="gray" stroke-width="10" stroke-dasharray="4,4" opacity="1"/><line aria-label="xcoord_1: 0.766060178938; ycoord_1: 0.0273910966192; xcoord_2: 1.13991610138; ycoord_2: 0.41442606724; Connector: connector" role="graphics-symbol" aria-roledescription="rule mark" transform="translate(406.5561076005173,251.53310404738914)" x2="67.19215823263488" y2="-63.042585865871246" stroke="gray" stroke-width="10" stroke-dasharray="4,4" opacity="1"/><line aria-label="xcoord_1: −0.95775323826; ycoord_1: 0.520417097005; xcoord_2: −1.19649139263; ycoord_2: 1.0039242634; Connector: connector" role="graphics-symbol" aria-roledescription="rule mark" transform="translate(96.73957952513341,171.22606121465432)" x2="-42.90779116146853" y2="-78.75655785213486" stroke="gray" stroke-width="10" stroke-dasharray="4,4" opacity="1"/><line aria-label="xcoord_1: 0.766060178938; ycoord_1: 0.0273910966192; xcoord_2: 1.28598026349; ycoord_2: −0.156934478682; Connector: connector" role="graphics-symbol" aria-roledescription="rule mark" transform="translate(406.5561076005173,251.53310404738914)" x2="93.4438923994827" y2="30.024059297751478" stroke="gray" stroke-width="10" stroke-dasharray="4,4" opacity="1"/><line aria-label="xcoord_1: 0.113542147581; ycoord_1: 1.05184049247; xcoord_2: 0.248232006501; ycoord_2: 1.57161879918; Connector: connector" role="graphics-symbol" aria-roledescription="rule mark" transform="translate(289.2807290910668,84.66461952851829)" x2="24.207460065615237" y2="-84.66461952851829" stroke="gray" stroke-width="10" stroke-dasharray="4,4" opacity="1"/><line aria-label="xcoord_1: −0.95775323826; ycoord_1: 0.520417097005; xcoord_2: −1.49601046487; ycoord_2: 0.388585993359; Connector: connector" role="graphics-symbol" aria-roledescription="rule mark" transform="translate(96.73957952513341,171.22606121465432)" x2="-96.73957952513341" y2="21.473443751179218" stroke="gray" stroke-width="10" stroke-dasharray="4,4" opacity="1"/><line aria-label="xcoord_1: −0.294990681524; ycoord_1: −0.518138026004; xcoord_2: −0.796118885558; ycoord_2: −0.710825405422; Connector: connector" role="graphics-symbol" aria-roledescription="rule mark" transform="translate(215.85618009088154,340.3921714855634)" x2="-90.0664763050379" y2="31.386080288197604" stroke="gray" stroke-width="10" stroke-dasharray="4,4" opacity="1"/><line aria-label="xcoord_1: 0.657616881508; ycoord_1: −1.03164696237; xcoord_2: 0.907734077935; ycoord_2: −1.49801235018; Connector: connector" role="graphics-symbol" aria-roledescription="rule mark" transform="translate(387.0658741636212,424.0355982322252)" x2="44.952916966419366" y2="75.9644017677748" stroke="gray" stroke-width="10" stroke-dasharray="4,4" opacity="1"/></g><g class="mark-symbol role-mark layer_2_marks" role="graphics-object" aria-roledescription="symbol mark container"><path aria-label="xcoord_1: −0.294990681524; ycoord_1: −0.518138026004; Bus: bus" role="graphics-symbol" aria-roledescription="circle" transform="translate(215.85618009088154,340.3921714855634)" d="M15.811,0A15.811,15.811,0,1,1,-15.811,0A15.811,15.811,0,1,1,15.811,0" fill="#31A354" stroke-width="2" opacity="1"/><path aria-label="xcoord_1: 0.766060178938; ycoord_1: 0.0273910966192; Bus: bus" role="graphics-symbol" aria-roledescription="circle" transform="translate(406.5561076005173,251.53310404738914)" d="M15.811,0A15.811,15.811,0,1,1,-15.811,0A15.811,15.811,0,1,1,15.811,0" fill="#31A354" stroke-width="2" opacity="1"/><path aria-label="xcoord_1: 0.657616881508; ycoord_1: −1.03164696237; Bus: bus" role="graphics-symbol" aria-roledescription="circle" transform="translate(387.0658741636212,424.0355982322252)" d="M15.811,0A15.811,15.811,0,1,1,-15.811,0A15.811,15.811,0,1,1,15.811,0" fill="#31A354" stroke-width="2" opacity="1"/><path aria-label="xcoord_1: 0.113542147581; ycoord_1: 1.05184049247; Bus: bus" role="graphics-symbol" aria-roledescription="circle" transform="translate(289.2807290910668,84.66461952851829)" d="M15.811,0A15.811,15.811,0,1,1,-15.811,0A15.811,15.811,0,1,1,15.811,0" fill="#31A354" stroke-width="2" opacity="1"/><path aria-label="xcoord_1: −0.95775323826; ycoord_1: 0.520417097005; Bus: bus" role="graphics-symbol" aria-roledescription="circle" transform="translate(96.73957952513341,171.22606121465432)" d="M15.811,0A15.811,15.811,0,1,1,-15.811,0A15.811,15.811,0,1,1,15.811,0" fill="#31A354" stroke-width="2" opacity="1"/></g><g class="mark-symbol role-mark layer_3_marks" role="graphics-object" aria-roledescription="symbol mark container"><path aria-label="xcoord_1: −0.796118885558; ycoord_1: −0.710825405422; Gen: gen" role="graphics-symbol" aria-roledescription="circle" transform="translate(125.78970378584364,371.778251773761)" d="M5,0A5,5,0,1,1,-5,0A5,5,0,1,1,5,0" fill="#E6550D" stroke-width="2" opacity="1"/><path aria-label="xcoord_1: 1.28598026349; ycoord_1: −0.156934478682; Gen: gen" role="graphics-symbol" aria-roledescription="circle" transform="translate(500,281.5571633451406)" d="M5,0A5,5,0,1,1,-5,0A5,5,0,1,1,5,0" fill="#E6550D" stroke-width="2" opacity="1"/><path aria-label="xcoord_1: 0.907734077935; ycoord_1: −1.49801235018; Gen: gen" role="graphics-symbol" aria-roledescription="circle" transform="translate(432.01879113004054,500)" d="M5,0A5,5,0,1,1,-5,0A5,5,0,1,1,5,0" fill="#E6550D" stroke-width="2" opacity="1"/><path aria-label="xcoord_1: 1.13991610138; ycoord_1: 0.41442606724; Gen: gen" role="graphics-symbol" aria-roledescription="circle" transform="translate(473.7482658331522,188.4905181815179)" d="M5,0A5,5,0,1,1,-5,0A5,5,0,1,1,5,0" fill="#E6550D" stroke-width="2" opacity="1"/><path aria-label="xcoord_1: −1.19649139263; ycoord_1: 1.0039242634; Gen: gen" role="graphics-symbol" aria-roledescription="circle" transform="translate(53.83178836366488,92.46950336251946)" d="M5,0A5,5,0,1,1,-5,0A5,5,0,1,1,5,0" fill="#E6550D" stroke-width="2" opacity="1"/></g><g class="mark-symbol role-mark layer_4_marks" role="graphics-object" aria-roledescription="symbol mark container"><path aria-label="xcoord_1: 0.248232006501; ycoord_1: 1.57161879918; Load: load" role="graphics-symbol" aria-roledescription="circle" transform="translate(313.48818915668204,0)" d="M7.071,0A7.071,7.071,0,1,1,-7.071,0A7.071,7.071,0,1,1,7.071,0" fill="#CB181D" stroke-width="2" opacity="1"/><path aria-label="xcoord_1: −1.49601046487; ycoord_1: 0.388585993359; Load: load" role="graphics-symbol" aria-roledescription="circle" transform="translate(0,192.69950496583354)" d="M7.071,0A7.071,7.071,0,1,1,-7.071,0A7.071,7.071,0,1,1,7.071,0" fill="#CB181D" stroke-width="2" opacity="1"/><path aria-label="xcoord_1: −0.377716994498; ycoord_1: −1.06264658662; Load: load" role="graphics-symbol" aria-roledescription="circle" transform="translate(200.98799377188521,429.0850036401931)" d="M7.071,0A7.071,7.071,0,1,1,-7.071,0A7.071,7.071,0,1,1,7.071,0" fill="#CB181D" stroke-width="2" opacity="1"/></g><g class="mark-group role-legend" role="graphics-symbol" aria-roledescription="legend" aria-label="Symbol legend titled 'Branch' for stroke color with 1 value: branch"><g transform="translate(518,0)"><path class="background" aria-hidden="true" d="M0,0h51v27h-51Z" pointer-events="none"/><g><g class="mark-group role-legend-entry"><g transform="translate(0,16)"><path class="background" aria-hidden="true" d="M0,0h0v0h0Z" pointer-events="none"/><g><g class="mark-group role-scope" role="graphics-object" aria-roledescription="group mark container"><g transform="translate(0,0)"><path class="background" aria-hidden="true" d="M0,0h50.7607421875v11h-50.7607421875Z" pointer-events="none" opacity="1"/><g><g class="mark-symbol role-legend-symbol" pointer-events="none"><path transform="translate(6,6)" d="M-5,0L5,0" stroke="#3182BD" stroke-width="1.5" opacity="1"/></g><g class="mark-text role-legend-label" pointer-events="none"><text text-anchor="start" transform="translate(16,9)" font-family="sans-serif" font-size="10px" fill="#000" opacity="1">branch</text></g></g><path class="foreground" aria-hidden="true" d="" pointer-events="none" display="none"/></g></g></g><path class="foreground" aria-hidden="true" d="" pointer-events="none" display="none"/></g></g><g class="mark-text role-legend-title" pointer-events="none"><text text-anchor="start" transform="translate(0,9)" font-family="sans-serif" font-size="11px" font-weight="bold" fill="#000" opacity="1">Branch</text></g></g><path class="foreground" aria-hidden="true" d="" pointer-events="none" display="none"/></g></g><g class="mark-group role-legend" role="graphics-symbol" aria-roledescription="legend" aria-label="Symbol legend titled 'Connector' for stroke color with 1 value: connector"><g transform="translate(518,35)"><path class="background" aria-hidden="true" d="M0,0h67v27h-67Z" pointer-events="none"/><g><g class="mark-group role-legend-entry"><g transform="translate(0,16)"><path class="background" aria-hidden="true" d="M0,0h0v0h0Z" pointer-events="none"/><g><g class="mark-group role-scope" role="graphics-object" aria-roledescription="group mark container"><g transform="translate(0,0)"><path class="background" aria-hidden="true" d="M0,0h66.0927734375v11h-66.0927734375Z" pointer-events="none" opacity="1"/><g><g class="mark-symbol role-legend-symbol" pointer-events="none"><path transform="translate(6,6)" d="M-5,0L5,0" stroke="gray" stroke-width="1.5" opacity="1"/></g><g class="mark-text role-legend-label" pointer-events="none"><text text-anchor="start" transform="translate(16,9)" font-family="sans-serif" font-size="10px" fill="#000" opacity="1">connector</text></g></g><path class="foreground" aria-hidden="true" d="" pointer-events="none" display="none"/></g></g></g><path class="foreground" aria-hidden="true" d="" pointer-events="none" display="none"/></g></g><g class="mark-text role-legend-title" pointer-events="none"><text text-anchor="start" transform="translate(0,9)" font-family="sans-serif" font-size="11px" font-weight="bold" fill="#000" opacity="1">Connector</text></g></g><path class="foreground" aria-hidden="true" d="" pointer-events="none" display="none"/></g></g><g class="mark-group role-legend" role="graphics-symbol" aria-roledescription="legend" aria-label="Symbol legend titled 'Bus' for fill color with 1 value: bus"><g transform="translate(518,70)"><path class="background" aria-hidden="true" d="M0,0h34v27h-34Z" pointer-events="none"/><g><g class="mark-group role-legend-entry"><g transform="translate(0,16)"><path class="background" aria-hidden="true" d="M0,0h0v0h0Z" pointer-events="none"/><g><g class="mark-group role-scope" role="graphics-object" aria-roledescription="group mark container"><g transform="translate(0,0)"><path class="background" aria-hidden="true" d="M0,0h33.8955078125v11h-33.8955078125Z" pointer-events="none" opacity="1"/><g><g class="mark-symbol role-legend-symbol" pointer-events="none"><path transform="translate(6,6)" d="M5,0A5,5,0,1,1,-5,0A5,5,0,1,1,5,0" fill="#31A354" stroke-width="1.5" opacity="1"/></g><g class="mark-text role-legend-label" pointer-events="none"><text text-anchor="start" transform="translate(16,9)" font-family="sans-serif" font-size="10px" fill="#000" opacity="1">bus</text></g></g><path class="foreground" aria-hidden="true" d="" pointer-events="none" display="none"/></g></g></g><path class="foreground" aria-hidden="true" d="" pointer-events="none" display="none"/></g></g><g class="mark-text role-legend-title" pointer-events="none"><text text-anchor="start" transform="translate(0,9)" font-family="sans-serif" font-size="11px" font-weight="bold" fill="#000" opacity="1">Bus</text></g></g><path class="foreground" aria-hidden="true" d="" pointer-events="none" display="none"/></g></g><g class="mark-group role-legend" role="graphics-symbol" aria-roledescription="legend" aria-label="Symbol legend titled 'Gen' for fill color with 1 value: gen"><g transform="translate(518,105)"><path class="background" aria-hidden="true" d="M0,0h35v27h-35Z" pointer-events="none"/><g><g class="mark-group role-legend-entry"><g transform="translate(0,16)"><path class="background" aria-hidden="true" d="M0,0h0v0h0Z" pointer-events="none"/><g><g class="mark-group role-scope" role="graphics-object" aria-roledescription="group mark container"><g transform="translate(0,0)"><path class="background" aria-hidden="true" d="M0,0h34.837890625v11h-34.837890625Z" pointer-events="none" opacity="1"/><g><g class="mark-symbol role-legend-symbol" pointer-events="none"><path transform="translate(6,6)" d="M5,0A5,5,0,1,1,-5,0A5,5,0,1,1,5,0" fill="#E6550D" stroke-width="1.5" opacity="1"/></g><g class="mark-text role-legend-label" pointer-events="none"><text text-anchor="start" transform="translate(16,9)" font-family="sans-serif" font-size="10px" fill="#000" opacity="1">gen</text></g></g><path class="foreground" aria-hidden="true" d="" pointer-events="none" display="none"/></g></g></g><path class="foreground" aria-hidden="true" d="" pointer-events="none" display="none"/></g></g><g class="mark-text role-legend-title" pointer-events="none"><text text-anchor="start" transform="translate(0,9)" font-family="sans-serif" font-size="11px" font-weight="bold" fill="#000" opacity="1">Gen</text></g></g><path class="foreground" aria-hidden="true" d="" pointer-events="none" display="none"/></g></g><g class="mark-group role-legend" role="graphics-symbol" aria-roledescription="legend" aria-label="Symbol legend titled 'Load' for fill color with 1 value: load"><g transform="translate(518,140)"><path class="background" aria-hidden="true" d="M0,0h38v27h-38Z" pointer-events="none"/><g><g class="mark-group role-legend-entry"><g transform="translate(0,16)"><path class="background" aria-hidden="true" d="M0,0h0v0h0Z" pointer-events="none"/><g><g class="mark-group role-scope" role="graphics-object" aria-roledescription="group mark container"><g transform="translate(0,0)"><path class="background" aria-hidden="true" d="M0,0h37.3720703125v11h-37.3720703125Z" pointer-events="none" opacity="1"/><g><g class="mark-symbol role-legend-symbol" pointer-events="none"><path transform="translate(6,6)" d="M5,0A5,5,0,1,1,-5,0A5,5,0,1,1,5,0" fill="#CB181D" stroke-width="1.5" opacity="1"/></g><g class="mark-text role-legend-label" pointer-events="none"><text text-anchor="start" transform="translate(16,9)" font-family="sans-serif" font-size="10px" fill="#000" opacity="1">load</text></g></g><path class="foreground" aria-hidden="true" d="" pointer-events="none" display="none"/></g></g></g><path class="foreground" aria-hidden="true" d="" pointer-events="none" display="none"/></g></g><g class="mark-text role-legend-title" pointer-events="none"><text text-anchor="start" transform="translate(0,9)" font-family="sans-serif" font-size="11px" font-weight="bold" fill="#000" opacity="1">Load</text></g></g><path class="foreground" aria-hidden="true" d="" pointer-events="none" display="none"/></g></g></g><path class="foreground" aria-hidden="true" d="" display="none"/></g></g></g></svg>