<svg xmlns="http://www.w3.org/2000/svg" xmlns:xlink="http://www.w3.org/1999/xlink" version="1.1" class="marks" width="603" height="526" viewBox="0 0 603 526"><rect width="603" height="526" fill="white"/><g fill="none" stroke-miterlimit="10" transform="translate(13,13)"><g class="mark-group role-frame root" role="graphics-object" aria-roledescription="group mark container"><g transform="translate(0,0)"><path class="background" aria-hidden="true" d="M0,0h500v500h-500Z"/><g><g class="mark-rule role-mark layer_0_layer_0_marks" role="graphics-object" aria-roledescription="rule mark container"><line aria-label="xcoord_1: −1.06168930245; ycoord_1: 1.05701946918; xcoord_2: −0.887472551826; ycoord_2: 0.0115364853144; Branch: 1.58" role="graphics-symbol" aria-roledescription="rule mark" transform="translate(139.99540119499514,154.36095918324943)" x2="16.59910675394883" y2="104.91947883764473" stroke="rgb(245, 174, 255)" stroke-width="5" opacity="1"/><line aria-label="xcoord_1: −0.435566620008; ycoord_1: 2.05677632774; xcoord_2: −1.06168930245; ycoord_2: 1.05701946918; Branch: 4.72" role="graphics-symbol" aria-roledescription="rule mark" transform="translate(199.65141710465758,54.03032713707584)" x2="-59.65601590966244" y2="100.3306320461736" stroke="rgb(124, 75, 255)" stroke-width="5" opacity="1"/><line aria-label="xcoord_1: 1.1692329666; ycoord_1: 0.536235397404; xcoord_2: 2.31065391157; ycoord_2: 0.935125825557; Branch: 1.04" role="graphics-symbol" aria-roledescription="rule mark" transform="translate(352.55427840557667,206.62426163837745)" x2="108.75284982090022" y2="-40.0306618865724" stroke="rgb(255, 192, 255)" stroke-width="5" opacity="1"/><line aria-label="xcoord_1: 1.99003563837; ycoord_1: −0.0713765638145; xcoord_2: 0.997857696521; ycoord_2: −1.04104983189; Branch: 0.76" role="graphics-symbol" aria-roledescription="rule mark" transform="translate(430.7591072978731,267.601179761999)" x2="-94.53320370630354" y2="97.3115923447125" stroke="rgb(255, 201, 255)" stroke-width="5" opacity="1"/><line aria-label="xcoord_1: −0.435566620008; ycoord_1: 2.05677632774; xcoord_2: −0.047740661717; ycoord_2: 0.854607930146; Branch: 1.28" role="graphics-symbol" aria-roledescription="rule mark" transform="translate(199.65141710465758,54.03032713707584)" x2="36.95146684002887" y2="120.64364862663098" stroke="rgb(255, 184, 255)" stroke-width="5" opacity="1"/><line aria-label="xcoord_1: −2.06013676716; ycoord_1: 0.498950820017; xcoord_2: −0.887472551826; ycoord_2: 0.0115364853144; Branch: 1.6" role="graphics-symbol" aria-roledescription="rule mark" transform="translate(44.86484689570516,210.3659566143114)" x2="111.7296610532388" y2="48.91448140658278" stroke="rgb(244, 173, 255)" stroke-width="5" opacity="1"/><line aria-label="xcoord_1: 1.1692329666; ycoord_1: 0.536235397404; xcoord_2: 1.46672286578; ycoord_2: −0.746801883867; Branch: 1.34" role="graphics-symbol" aria-roledescription="rule mark" transform="translate(352.55427840557667,206.62426163837745)" x2="28.344384664458516" y2="128.75924807787385" stroke="rgb(254, 182, 255)" stroke-width="5" opacity="1"/><line aria-label="xcoord_1: 1.1692329666; ycoord_1: 0.536235397404; xcoord_2: 1.99003563837; ycoord_2: −0.0713765638145; Branch: 2.01" role="graphics-symbol" aria-roledescription="rule mark" transform="translate(352.55427840557667,206.62426163837745)" x2="78.2048288922964" y2="60.976918123621545" stroke="rgb(229, 160, 255)" stroke-width="5" opacity="1"/><line aria-label="xcoord_1: −1.06168930245; ycoord_1: 1.05701946918; xcoord_2: −0.047740661717; ycoord_2: 0.854607930146; Branch: 1.61" role="graphics-symbol" aria-roledescription="rule mark" transform="translate(139.99540119499514,154.36095918324943)" x2="96.60748274969131" y2="20.313016580457372" stroke="rgb(244, 173, 255)" stroke-width="5" opacity="1"/><line aria-label="xcoord_1: −1.29780102179; ycoord_1: −1.1240973657; xcoord_2: −0.255563188466; ycoord_2: −1.01414040795; Branch: 2.67" role="graphics-symbol" aria-roledescription="rule mark" transform="translate(117.49903605684379,373.24701006300137)" x2="99.30283394953356" y2="-11.034734070248192" stroke="rgb(204, 139, 255)" stroke-width="5" opacity="1"/><line aria-label="xcoord_1: −0.255563188466; ycoord_1: −1.01414040795; xcoord_2: 0.524927062375; ycoord_2: −1.77047042079; Branch: 3.25" role="graphics-symbol" aria-roledescription="rule mark" transform="translate(216.80187000637736,362.2122759927532)" x2="74.36392280181016" y2="75.90152302968835" stroke="rgb(182, 121, 255)" stroke-width="5" opacity="1"/><line aria-label="xcoord_1: −1.29780102179; ycoord_1: −1.1240973657; xcoord_2: −2.06502432522; ycoord_2: −1.99540996064; Branch: 1.67" role="graphics-symbol" aria-roledescription="rule mark" transform="translate(117.49903605684379,373.24701006300137)" x2="-73.09986825103962" y2="87.44060379378635" stroke="rgb(242, 171, 255)" stroke-width="5" opacity="1"/><line aria-label="xcoord_1: −0.887472551826; ycoord_1: 0.0115364853144; xcoord_2: −0.047740661717; ycoord_2: 0.854607930146; Branch: 6.64" role="graphics-symbol" aria-roledescription="rule mark" transform="translate(156.59450794894397,259.28043802089417)" x2="80.00837599574248" y2="-84.60646225718736" stroke="rgb(0, 0, 255)" stroke-width="5" opacity="1"/><line aria-label="xcoord_1: −0.887472551826; ycoord_1: 0.0115364853144; xcoord_2: −1.29780102179; ycoord_2: −1.1240973657; Branch: 1.41" role="graphics-symbol" aria-roledescription="rule mark" transform="translate(156.59450794894397,259.28043802089417)" x2="-39.09547189210018" y2="113.9665720421072" stroke="rgb(251, 180, 255)" stroke-width="5" opacity="1"/><line aria-label="xcoord_1: −0.255563188466; ycoord_1: −1.01414040795; xcoord_2: 0.997857696521; ycoord_2: −1.04104983189; Branch: 0.99" role="graphics-symbol" aria-roledescription="rule mark" transform="translate(216.80187000637736,362.2122759927532)" x2="119.42403358519218" y2="2.700496113958309" stroke="rgb(255, 193, 255)" stroke-width="5" opacity="1"/><line aria-label="xcoord_1: −0.047740661717; ycoord_1: 0.854607930146; xcoord_2: 1.1692329666; ycoord_2: 0.536235397404; Branch: 1.17" role="graphics-symbol" aria-roledescription="rule mark" transform="translate(236.60288394468645,174.6739757637068)" x2="115.95139446089021" y2="31.95028587467064" stroke="rgb(255, 188, 255)" stroke-width="5" opacity="1"/><line aria-label="xcoord_1: 2.31065391157; ycoord_1: 0.935125825557; xcoord_2: 1.99003563837; ycoord_2: −0.0713765638145; Branch: 0.99" role="graphics-symbol" aria-roledescription="rule mark" transform="translate(461.3071282264769,166.59359975180504)" x2="-30.54802092860382" y2="101.00758001019395" stroke="rgb(255, 193, 255)" stroke-width="5" opacity="1"/><line aria-label="xcoord_1: −0.887472551826; ycoord_1: 0.0115364853144; xcoord_2: −0.255563188466; ycoord_2: −1.01414040795; Branch: 0.53" role="graphics-symbol" aria-roledescription="rule mark" transform="translate(156.59450794894397,259.28043802089417)" x2="60.207362057433386" y2="102.93183797185901" stroke="rgb(255, 209, 255)" stroke-width="5" opacity="1"/><line aria-label="xcoord_1: 0.524927062375; ycoord_1: −1.77047042079; xcoord_2: 1.46672286578; ycoord_2: −0.746801883867; Branch: 1.41" role="graphics-symbol" aria-roledescription="rule mark" transform="translate(291.1657928081875,438.1137990224415)" x2="89.73287026184767" y2="-102.73028930619023" stroke="rgb(251, 180, 255)" stroke-width="5" opacity="1"/><line aria-label="xcoord_1: −1.06168930245; ycoord_1: 1.05701946918; xcoord_2: −2.06013676716; ycoord_2: 0.498950820017; Branch: 1.45" role="graphics-symbol" aria-roledescription="rule mark" transform="translate(139.99540119499514,154.36095918324943)" x2="-95.13055429928997" y2="56.00499743106195" stroke="rgb(250, 178, 255)" stroke-width="5" opacity="1"/></g><g class="mark-symbol role-mark layer_0_layer_1_marks" role="graphics-object" aria-roledescription="symbol mark container"><path aria-label="mid_x: −0.974580927137; mid_y: 0.534277977245; power: 0; angle: −9.46070049948" role="graphics-symbol" aria-roledescription="point" transform="translate(148.29495457196953,206.82069860207181) rotate(-9.460700499482902)" d="M0,-24.152L-5.229,12.076L5.229,12.076Z" fill="black" stroke-width="2" opacity="0"/><path aria-label="mid_x: −0.748627961229; mid_y: 1.55689789846; power: 0; angle: 32.0578831513" role="graphics-symbol" aria-roledescription="point" transform="translate(169.82340914982638,104.1956431601626) rotate(32.057883151323864)" d="M0,-24.152L-5.229,12.076L5.229,12.076Z" fill="black" stroke-width="2" opacity="0"/><path aria-label="mid_x: 1.73994343909; mid_y: 0.735680611481; power: 0; angle: −109.262901747" role="graphics-symbol" aria-roledescription="point" transform="translate(406.9307033160268,186.6089306950912) rotate(-109.26290174653627)" d="M0,-24.152L-5.229,12.076L5.229,12.076Z" fill="black" stroke-width="2" opacity="0"/><path aria-label="mid_x: 1.49394666745; mid_y: −0.556213197851; power: 0; angle: 45.6572191957" role="graphics-symbol" aria-roledescription="point" transform="translate(383.4925054447213,316.25697593435524) rotate(45.65721919566784)" d="M0,-24.152L-5.229,12.076L5.229,12.076Z" fill="black" stroke-width="2" opacity="0"/><path aria-label="mid_x: −0.241653640863; mid_y: 1.45569212894; power: 0; angle: −17.8799787296" role="graphics-symbol" aria-roledescription="point" transform="translate(218.127150524672,114.35215145039135) rotate(-17.879978729577875)" d="M0,-24.152L-5.229,12.076L5.229,12.076Z" fill="black" stroke-width="2" opacity="0"/><path aria-label="mid_x: −1.47380465949; mid_y: 0.255243652666; power: 0; angle: −67.4299344511" role="graphics-symbol" aria-roledescription="point" transform="translate(100.72967742232456,234.82319731760276) rotate(-67.42993445113478)" d="M0,-24.152L-5.229,12.076L5.229,12.076Z" fill="black" stroke-width="2" opacity="0"/><path aria-label="mid_x: 1.31797791619; mid_y: −0.105283243231; power: 0; angle: −13.0541457319" role="graphics-symbol" aria-roledescription="point" transform="translate(366.7264707378059,271.0038856773144) rotate(-13.054145731942263)" d="M0,-24.152L-5.229,12.076L5.229,12.076Z" fill="black" stroke-width="2" opacity="0"/><path aria-label="mid_x: 1.57963430249; mid_y: 0.232429416795; power: 0; angle: −53.4887279443" role="graphics-symbol" aria-roledescription="point" transform="translate(391.65669285172487,237.11272070018825) rotate(-53.48872794430956)" d="M0,-24.152L-5.229,12.076L5.229,12.076Z" fill="black" stroke-width="2" opacity="0"/><path aria-label="mid_x: −0.554714982083; mid_y: 0.955813699661; power: 0; angle: −78.710617605" role="graphics-symbol" aria-roledescription="point" transform="translate(188.2991425698408,164.51746747347812) rotate(-78.71061760497247)" d="M0,-24.152L-5.229,12.076L5.229,12.076Z" fill="black" stroke-width="2" opacity="0"/><path aria-label="mid_x: −0.776682105128; mid_y: −1.06911888683; power: 0; angle: −96.022474068" role="graphics-symbol" aria-roledescription="point" transform="translate(167.15045303161054,367.7296430278773) rotate(-96.02247406798529)" d="M0,-24.152L-5.229,12.076L5.229,12.076Z" fill="black" stroke-width="2" opacity="0"/><path aria-label="mid_x: 0.134681936955; mid_y: −1.39230541437; power: 0; angle: −45.9006685287" role="graphics-symbol" aria-roledescription="point" transform="translate(253.98383140728242,400.1630375075974) rotate(-45.90066852870468)" d="M0,-24.152L-5.229,12.076L5.229,12.076Z" fill="black" stroke-width="2" opacity="0"/><path aria-label="mid_x: −1.6814126735; mid_y: −1.55975366317; power: 0; angle: 41.3651244932" role="graphics-symbol" aria-roledescription="point" transform="translate(80.949101931324,416.9673119598946) rotate(41.365124493175486)" d="M0,-24.152L-5.229,12.076L5.229,12.076Z" fill="black" stroke-width="2" opacity="0"/><path aria-label="mid_x: −0.467606606771; mid_y: 0.43307220773; power: 0; angle: −135.113704398" role="graphics-symbol" aria-roledescription="point" transform="translate(196.59869594681518,216.9772068923005) rotate(-135.11370439784775)" d="M0,-24.152L-5.229,12.076L5.229,12.076Z" fill="black" stroke-width="2" opacity="0"/><path aria-label="mid_x: −1.09263678681; mid_y: −0.556280440194; power: 0; angle: 19.865857099" role="graphics-symbol" aria-roledescription="point" transform="translate(137.04677200289387,316.26372404194774) rotate(19.865857098984907)" d="M0,-24.152L-5.229,12.076L5.229,12.076Z" fill="black" stroke-width="2" opacity="0"/><path aria-label="mid_x: 0.371147254028; mid_y: −1.02759511992; power: 0; angle: −88.7701181393" role="graphics-symbol" aria-roledescription="point" transform="translate(276.51388679897343,363.5625240497323) rotate(-88.77011813927584)" d="M0,-24.152L-5.229,12.076L5.229,12.076Z" fill="black" stroke-width="2" opacity="0"/><path aria-label="mid_x: 0.560746152442; mid_y: 0.695421663775; power: 0; angle: −75.3394097956" role="graphics-symbol" aria-roledescription="point" transform="translate(294.57858117513155,190.6491187010421) rotate(-75.33940979561262)" d="M0,-24.152L-5.229,12.076L5.229,12.076Z" fill="black" stroke-width="2" opacity="0"/><path aria-label="mid_x: 2.15034477497; mid_y: 0.431874630872; power: 0; angle: 17.6691198099" role="graphics-symbol" aria-roledescription="point" transform="translate(446.03311776217504,217.09738975690206) rotate(17.669119809927825)" d="M0,-24.152L-5.229,12.076L5.229,12.076Z" fill="black" stroke-width="2" opacity="0"/><path aria-label="mid_x: −0.571517870146; mid_y: −0.501301961318; power: 0; angle: −31.6368107982" role="graphics-symbol" aria-roledescription="point" transform="translate(186.69818897766066,310.7463570068237) rotate(-31.636810798248924)" d="M0,-24.152L-5.229,12.076L5.229,12.076Z" fill="black" stroke-width="2" opacity="0"/><path aria-label="mid_x: 0.995824964076; mid_y: −1.25863615233; power: 0; angle: −137.385315047" role="graphics-symbol" aria-roledescription="point" transform="translate(336.0322279391113,386.7486543693464) rotate(-137.3853150468558)" d="M0,-24.152L-5.229,12.076L5.229,12.076Z" fill="black" stroke-width="2" opacity="0"/><path aria-label="mid_x: −1.56091303481; mid_y: 0.777985144597; power: 0; angle: 60.7975853629" role="graphics-symbol" aria-roledescription="point" transform="translate(92.43012404535015,182.36345789878044) rotate(60.79758536292237)" d="M0,-24.152L-5.229,12.076L5.229,12.076Z" fill="black" stroke-width="2" opacity="0"/></g><g class="mark-rule role-mark layer_1_marks" role="graphics-object" aria-roledescription="rule mark container"><line aria-label="xcoord_1: −0.435566620008; ycoord_1: 2.05677632774; xcoord_2: −0.467198239286; ycoord_2: 2.59516813315; Connector: connector" role="graphics-symbol" aria-roledescription="rule mark" transform="translate(199.65141710465758,54.03032713707584)" x2="-3.013812525593295" y2="-54.03032713707584" stroke="gray" stroke-width="3" stroke-dasharray="4,4" opacity="1"/><line aria-label="xcoord_1: 1.1692329666; ycoord_1: 0.536235397404; xcoord_2: 1.5510874933; ycoord_2: 0.8185265093; Connector: connector" role="graphics-symbol" aria-roledescription="rule mark" transform="translate(352.55427840557667,206.62426163837745)" x2="36.38251792894397" y2="-28.329333712491973" stroke="gray" stroke-width="3" stroke-dasharray="4,4" opacity="1"/><line aria-label="xcoord_1: −2.06502432522; ycoord_1: −1.99540996064; xcoord_2: −2.4033297471; ycoord_2: −2.38714304226; Connector: connector" role="graphics-symbol" aria-roledescription="rule mark" transform="translate(44.399167805804176,460.6876138567877)" x2="-32.23322552658597" y2="39.31238614321228" stroke="gray" stroke-width="3" stroke-dasharray="4,4" opacity="1"/><line aria-label="xcoord_1: 0.524927062375; ycoord_1: −1.77047042079; xcoord_2: 0.579668789843; ycoord_2: −2.32414612426; Connector: connector" role="graphics-symbol" aria-roledescription="rule mark" transform="translate(291.1657928081875,438.1137990224415)" x2="5.215708448729856" y2="55.56414322350497" stroke="gray" stroke-width="3" stroke-dasharray="4,4" opacity="1"/><line aria-label="xcoord_1: −1.06168930245; ycoord_1: 1.05701946918; xcoord_2: −1.52116820371; ycoord_2: 1.30102983152; Connector: connector" role="graphics-symbol" aria-roledescription="rule mark" transform="translate(139.99540119499514,154.36095918324943)" x2="-43.77845015485626" y2="-24.487667846693085" stroke="gray" stroke-width="3" stroke-dasharray="4,4" opacity="1"/><line aria-label="xcoord_1: 0.997857696521; ycoord_1: −1.04104983189; xcoord_2: 1.30887557105; ycoord_2: −1.53835501865; Connector: connector" role="graphics-symbol" aria-roledescription="rule mark" transform="translate(336.22590359156953,364.9127721067115)" x2="29.63330955955223" y2="49.907078187039644" stroke="gray" stroke-width="3" stroke-dasharray="4,4" opacity="1"/><line aria-label="xcoord_1: −2.06013676716; ycoord_1: 0.498950820017; xcoord_2: −2.49547763132; ycoord_2: 0.857228397588; Connector: connector" role="graphics-symbol" aria-roledescription="rule mark" transform="translate(44.86484689570516,210.3659566143114)" x2="-41.478614729270866" y2="-35.95495794593239" stroke="gray" stroke-width="3" stroke-dasharray="4,4" opacity="1"/><line aria-label="xcoord_1: 2.31065391157; ycoord_1: 0.935125825557; xcoord_2: 2.71675687197; ycoord_2: 1.26852784962; Connector: connector" role="graphics-symbol" aria-roledescription="rule mark" transform="translate(461.3071282264769,166.59359975180504)" x2="38.69287177352311" y2="-33.458570964400906" stroke="gray" stroke-width="3" stroke-dasharray="4,4" opacity="1"/><line aria-label="xcoord_1: −0.047740661717; ycoord_1: 0.854607930146; xcoord_2: 0.121335173811; ycoord_2: 1.30368069584; Connector: connector" role="graphics-symbol" aria-roledescription="rule mark" transform="translate(236.60288394468645,174.6739757637068)" x2="16.10928819075656" y2="-45.066712001763705" stroke="gray" stroke-width="3" stroke-dasharray="4,4" opacity="1"/><line aria-label="xcoord_1: 1.1692329666; ycoord_1: 0.536235397404; xcoord_2: 1.19854241637; ycoord_2: 1.07955012541; Connector: connector" role="graphics-symbol" aria-roledescription="rule mark" transform="translate(352.55427840557667,206.62426163837745)" x2="2.7925597498822867" y2="-54.52436719358613" stroke="gray" stroke-width="3" stroke-dasharray="4,4" opacity="1"/><line aria-label="xcoord_1: 1.99003563837; ycoord_1: −0.0713765638145; xcoord_2: 2.53185495954; ycoord_2: −0.199616302843; Connector: connector" role="graphics-symbol" aria-roledescription="rule mark" transform="translate(430.7591072978731,267.601179761999)" x2="51.623719999471575" y2="12.869503179733385" stroke="gray" stroke-width="3" stroke-dasharray="4,4" opacity="1"/><line aria-label="xcoord_1: −0.255563188466; ycoord_1: −1.01414040795; xcoord_2: −0.458305272708; ycoord_2: −1.48966546702; Connector: connector" role="graphics-symbol" aria-roledescription="rule mark" transform="translate(216.80187000637736,362.2122759927532)" x2="-19.31695711128009" y2="47.721332763405314" stroke="gray" stroke-width="3" stroke-dasharray="4,4" opacity="1"/><line aria-label="xcoord_1: −1.06168930245; ycoord_1: 1.05701946918; xcoord_2: −1.16351001594; ycoord_2: 1.57197610105; Connector: connector" role="graphics-symbol" aria-roledescription="rule mark" transform="translate(139.99540119499514,154.36095918324943)" x2="-9.701322559516399" y2="-51.67848953463816" stroke="gray" stroke-width="3" stroke-dasharray="4,4" opacity="1"/><line aria-label="xcoord_1: −2.06013676716; ycoord_1: 0.498950820017; xcoord_2: −2.53101799946; ycoord_2: 0.22876960857; Connector: connector" role="graphics-symbol" aria-roledescription="rule mark" transform="translate(44.86484689570516,210.3659566143114)" x2="-44.86484689570516" y2="27.114044259316586" stroke="gray" stroke-width="3" stroke-dasharray="4,4" opacity="1"/><line aria-label="xcoord_1: −0.887472551826; ycoord_1: 0.0115364853144; xcoord_2: −1.27336746387; ycoord_2: −0.204375446308; Connector: connector" role="graphics-symbol" aria-roledescription="rule mark" transform="translate(156.59450794894397,259.28043802089417)" x2="-36.76747969344261" y2="21.667848917938727" stroke="gray" stroke-width="3" stroke-dasharray="4,4" opacity="1"/><line aria-label="xcoord_1: 1.46672286578; ycoord_1: −0.746801883867; xcoord_2: 1.95681759495; ycoord_2: −1.06806167139; Connector: connector" role="graphics-symbol" aria-roledescription="rule mark" transform="translate(380.8986630700352,335.3835097162513)" x2="46.69547962481795" y2="32.240036421982154" stroke="gray" stroke-width="3" stroke-dasharray="4,4" opacity="1"/></g><g class="mark-symbol role-mark layer_2_marks" role="graphics-object" aria-roledescription="symbol mark container"><path aria-label="xcoord_1: −0.887472551826; ycoord_1: 0.0115364853144; Bus: bus" role="graphics-symbol" aria-roledescription="circle" transform="translate(156.59450794894397,259.28043802089417)" d="M11.18,0A11.18,11.18,0,1,1,-11.18,0A11.18,11.18,0,1,1,11.18,0" fill="#31A354" stroke-width="2" opacity="1"/><path aria-label="xcoord_1: −0.435566620008; ycoord_1: 2.05677632774; Bus: bus" role="graphics-symbol" aria-roledescription="circle" transform="translate(199.65141710465758,54.03032713707584)" d="M11.18,0A11.18,11.18,0,1,1,-11.18,0A11.18,11.18,0,1,1,11.18,0" fill="#31A354" stroke-width="2" opacity="1"/><path aria-label="xcoord_1: 2.31065391157; ycoord_1: 0.935125825557; Bus: bus" role="graphics-symbol" aria-roledescription="circle" transform="translate(461.3071282264769,166.59359975180504)" d="M11.18,0A11.18,11.18,0,1,1,-11.18,0A11.18,11.18,0,1,1,11.18,0" fill="#31A354" stroke-width="2" opacity="1"/><path aria-label="xcoord_1: −1.06168930245; ycoord_1: 1.05701946918; Bus: bus" role="graphics-symbol" aria-roledescription="circle" transform="translate(139.99540119499514,154.36095918324943)" d="M11.18,0A11.18,11.18,0,1,1,-11.18,0A11.18,11.18,0,1,1,11.18,0" fill="#31A354" stroke-width="2" opacity="1"/><path aria-label="xcoord_1: 1.1692329666; ycoord_1: 0.536235397404; Bus: bus" role="graphics-symbol" aria-roledescription="circle" transform="translate(352.55427840557667,206.62426163837745)" d="M11.18,0A11.18,11.18,0,1,1,-11.18,0A11.18,11.18,0,1,1,11.18,0" fill="#31A354" stroke-width="2" opacity="1"/><path aria-label="xcoord_1: 1.46672286578; ycoord_1: −0.746801883867; Bus: bus" role="graphics-symbol" aria-roledescription="circle" transform="translate(380.8986630700352,335.3835097162513)" d="M11.18,0A11.18,11.18,0,1,1,-11.18,0A11.18,11.18,0,1,1,11.18,0" fill="#31A354" stroke-width="2" opacity="1"/><path aria-label="xcoord_1: 1.99003563837; ycoord_1: −0.0713765638145; Bus: bus" role="graphics-symbol" aria-roledescription="circle" transform="translate(430.7591072978731,267.601179761999)" d="M11.18,0A11.18,11.18,0,1,1,-11.18,0A11.18,11.18,0,1,1,11.18,0" fill="#31A354" stroke-width="2" opacity="1"/><path aria-label="xcoord_1: −0.047740661717; ycoord_1: 0.854607930146; Bus: bus" role="graphics-symbol" aria-roledescription="circle" transform="translate(236.60288394468645,174.6739757637068)" d="M11.18,0A11.18,11.18,0,1,1,-11.18,0A11.18,11.18,0,1,1,11.18,0" fill="#31A354" stroke-width="2" opacity="1"/><path aria-label="xcoord_1: 0.997857696521; ycoord_1: −1.04104983189; Bus: bus" role="graphics-symbol" aria-roledescription="circle" transform="translate(336.22590359156953,364.9127721067115)" d="M11.18,0A11.18,11.18,0,1,1,-11.18,0A11.18,11.18,0,1,1,11.18,0" fill="#31A354" stroke-width="2" opacity="1"/><path aria-label="xcoord_1: −1.29780102179; ycoord_1: −1.1240973657; Bus: bus" role="graphics-symbol" aria-roledescription="circle" transform="translate(117.49903605684379,373.24701006300137)" d="M11.18,0A11.18,11.18,0,1,1,-11.18,0A11.18,11.18,0,1,1,11.18,0" fill="#31A354" stroke-width="2" opacity="1"/><path aria-label="xcoord_1: −2.06502432522; ycoord_1: −1.99540996064; Bus: bus" role="graphics-symbol" aria-roledescription="circle" transform="translate(44.399167805804176,460.6876138567877)" d="M11.18,0A11.18,11.18,0,1,1,-11.18,0A11.18,11.18,0,1,1,11.18,0" fill="#31A354" stroke-width="2" opacity="1"/><path aria-label="xcoord_1: 0.524927062375; ycoord_1: −1.77047042079; Bus: bus" role="graphics-symbol" aria-roledescription="circle" transform="translate(291.1657928081875,438.1137990224415)" d="M11.18,0A11.18,11.18,0,1,1,-11.18,0A11.18,11.18,0,1,1,11.18,0" fill="#31A354" stroke-width="2" opacity="1"/><path aria-label="xcoord_1: −0.255563188466; ycoord_1: −1.01414040795; Bus: bus" role="graphics-symbol" aria-roledescription="circle" transform="translate(216.80187000637736,362.2122759927532)" d="M11.18,0A11.18,11.18,0,1,1,-11.18,0A11.18,11.18,0,1,1,11.18,0" fill="#31A354" stroke-width="2" opacity="1"/><path aria-label="xcoord_1: −2.06013676716; ycoord_1: 0.498950820017; Bus: bus" role="graphics-symbol" aria-roledescription="circle" transform="translate(44.86484689570516,210.3659566143114)" d="M11.18,0A11.18,11.18,0,1,1,-11.18,0A11.18,11.18,0,1,1,11.18,0" fill="#31A354" stroke-width="2" opacity="1"/></g><g class="mark-symbol role-mark layer_3_marks" role="graphics-object" aria-roledescription="symbol mark container"><path aria-label="xcoord_1: 1.5510874933; ycoord_1: 0.8185265093; Gen: 0" role="graphics-symbol" aria-roledescription="circle" transform="translate(388.93679633452064,178.29492792588547)" d="M7.071,0A7.071,7.071,0,1,1,-7.071,0A7.071,7.071,0,1,1,7.071,0" fill="#E6550D" stroke-width="2" opacity="1"/><path aria-label="xcoord_1: −0.467198239286; ycoord_1: 2.59516813315; Gen: 3.4" role="graphics-symbol" aria-roledescription="circle" transform="translate(196.6376045790643,0)" d="M7.071,0A7.071,7.071,0,1,1,-7.071,0A7.071,7.071,0,1,1,7.071,0" fill="#F19358" stroke-width="2" opacity="1"/><path aria-label="xcoord_1: −2.4033297471; ycoord_1: −2.38714304226; Gen: 0" role="graphics-symbol" aria-roledescription="circle" transform="translate(12.165942279218205,500)" d="M7.071,0A7.071,7.071,0,1,1,-7.071,0A7.071,7.071,0,1,1,7.071,0" fill="#E6550D" stroke-width="2" opacity="1"/><path aria-label="xcoord_1: −1.16351001594; ycoord_1: 1.57197610105; Gen: 0.59" role="graphics-symbol" aria-roledescription="circle" transform="translate(130.29407863547874,102.68246964861127)" d="M7.071,0A7.071,7.071,0,1,1,-7.071,0A7.071,7.071,0,1,1,7.071,0" fill="#EB7433" stroke-width="2" opacity="1"/><path aria-label="xcoord_1: −2.49547763132; ycoord_1: 0.857228397588; Gen: 0" role="graphics-symbol" aria-roledescription="circle" transform="translate(3.3862321664342945,174.410998668379)" d="M7.071,0A7.071,7.071,0,1,1,-7.071,0A7.071,7.071,0,1,1,7.071,0" fill="#E6550D" stroke-width="2" opacity="1"/></g><g class="mark-symbol role-mark layer_4_marks" role="graphics-object" aria-roledescription="symbol mark container"><path aria-label="xcoord_1: 0.121335173811; ycoord_1: 1.30368069584; Load: load" role="graphics-symbol" aria-roledescription="circle" transform="translate(252.712172135443,129.6072637619431)" d="M7.071,0A7.071,7.071,0,1,1,-7.071,0A7.071,7.071,0,1,1,7.071,0" fill="#CB181D" stroke-width="2" opacity="1"/><path aria-label="xcoord_1: −1.52116820371; ycoord_1: 1.30102983152; Load: load" role="graphics-symbol" aria-roledescription="circle" transform="translate(96.21695104013888,129.87329133655635)" d="M7.071,0A7.071,7.071,0,1,1,-7.071,0A7.071,7.071,0,1,1,7.071,0" fill="#CB181D" stroke-width="2" opacity="1"/><path aria-label="xcoord_1: −2.53101799946; ycoord_1: 0.22876960857; Load: load" role="graphics-symbol" aria-roledescription="circle" transform="translate(0,237.48000087362797)" d="M7.071,0A7.071,7.071,0,1,1,-7.071,0A7.071,7.071,0,1,1,7.071,0" fill="#CB181D" stroke-width="2" opacity="1"/><path aria-label="xcoord_1: −0.458305272708; ycoord_1: −1.48966546702; Load: load" role="graphics-symbol" aria-roledescription="circle" transform="translate(197.48491289509727,409.9336087561585)" d="M7.071,0A7.071,7.071,0,1,1,-7.071,0A7.071,7.071,0,1,1,7.071,0" fill="#CB181D" stroke-width="2" opacity="1"/><path aria-label="xcoord_1: 1.30887557105; ycoord_1: −1.53835501865; Load: load" role="graphics-symbol" aria-roledescription="circle" transform="translate(365.85921315112176,414.81985029375113)" d="M7.071,0A7.071,7.071,0,1,1,-7.071,0A7.071,7.071,0,1,1,7.071,0" fill="#CB181D" stroke-width="2" opacity="1"/><path aria-label="xcoord_1: 1.19854241637; ycoord_1: 1.07955012541; Load: load" role="graphics-symbol" aria-roledescription="circle" transform="translate(355.34683815545895,152.09989444479132)" d="M7.071,0A7.071,7.071,0,1,1,-7.071,0A7.071,7.071,0,1,1,7.071,0" fill="#CB181D" stroke-width="2" opacity="1"/><path aria-label="xcoord_1: 0.579668789843; ycoord_1: −2.32414612426; Load: load" role="graphics-symbol" aria-roledescription="circle" transform="translate(296.3815012569174,493.6779422459465)" d="M7.071,0A7.071,7.071,0,1,1,-7.071,0A7.071,7.071,0,1,1,7.071,0" fill="#CB181D" stroke-width="2" opacity="1"/><path aria-label="xcoord_1: 1.95681759495; ycoord_1: −1.06806167139; Load: load" role="graphics-symbol" aria-roledescription="circle" transform="translate(427.59414269485313,367.62354613823345)" d="M7.071,0A7.071,7.071,0,1,1,-7.071,0A7.071,7.071,0,1,1,7.071,0" fill="#CB181D" stroke-width="2" opacity="1"/><path aria-label="xcoord_1: 2.53185495954; ycoord_1: −0.199616302843; Load: load" role="graphics-symbol" aria-roledescription="circle" transform="translate(482.38282729734465,280.4706829417324)" d="M7.071,0A7.071,7.071,0,1,1,-7.071,0A7.071,7.071,0,1,1,7.071,0" fill="#CB181D" stroke-width="2" opacity="1"/><path aria-label="xcoord_1: 2.71675687197; ycoord_1: 1.26852784962; Load: load" role="graphics-symbol" aria-roledescription="circle" transform="translate(500,133.13502878740414)" d="M7.071,0A7.071,7.071,0,1,1,-7.071,0A7.071,7.071,0,1,1,7.071,0" fill="#CB181D" stroke-width="2" opacity="1"/><path aria-label="xcoord_1: −1.27336746387; ycoord_1: −0.204375446308; Load: load" role="graphics-symbol" aria-roledescription="circle" transform="translate(119.82702825550136,280.9482869388329)" d="M7.071,0A7.071,7.071,0,1,1,-7.071,0A7.071,7.071,0,1,1,7.071,0" fill="#CB181D" stroke-width="2" opacity="1"/></g><g class="mark-group role-legend" role="graphics-symbol" aria-roledescription="legend" aria-label="Gradient legend titled 'Branch' for stroke color with values from 1 to 7"><g transform="translate(518,0)"><path class="background" aria-hidden="true" d="M0,0h44v216h-44Z" pointer-events="none"/><g><g class="mark-group role-legend-entry"><g transform="translate(0,16)"><path class="background" aria-hidden="true" d="M0,0h0v0h0Z" pointer-events="none"/><g><g class="mark-rect role-legend-gradient" pointer-events="none"><path d="M0,0h16v200h-16Z" fill="url(#gradient_0)" stroke="#ddd" stroke-width="0" opacity="1"/></g><g class="mark-text role-legend-label" pointer-events="none"><text text-anchor="start" transform="translate(18,154.88216039279868)" font-family="sans-serif" font-size="10px" fill="#000" opacity="1">2</text><text text-anchor="start" transform="translate(18,89.41571194762685)" font-family="sans-serif" font-size="10px" fill="#000" opacity="1">4</text><text text-anchor="start" transform="translate(18,23.949263502454983)" font-family="sans-serif" font-size="10px" fill="#000" opacity="1">6</text></g></g><path class="foreground" aria-hidden="true" d="" pointer-events="none" display="none"/></g></g><g class="mark-text role-legend-title" pointer-events="none"><text text-anchor="start" transform="translate(0,9)" font-family="sans-serif" font-size="11px" font-weight="bold" fill="#000" opacity="1">Branch</text></g></g><path class="foreground" aria-hidden="true" d="" pointer-events="none" display="none"/></g></g><g class="mark-group role-legend" role="graphics-symbol" aria-roledescription="legend" aria-label="Symbol legend titled 'Connector' for stroke color with 1 value: connector"><g transform="translate(518,224)"><path class="background" aria-hidden="true" d="M0,0h67v27h-67Z" pointer-events="none"/><g><g class="mark-group role-legend-entry"><g transform="translate(0,16)"><path class="background" aria-hidden="true" d="M0,0h0v0h0Z" pointer-events="none"/><g><g class="mark-group role-scope" role="graphics-object" aria-roledescription="group mark container"><g transform="translate(0,0)"><path class="background" aria-hidden="true" d="M0,0h66.0927734375v11h-66.0927734375Z" pointer-events="none" opacity="1"/><g><g class="mark-symbol role-legend-symbol" pointer-events="none"><path transform="translate(6,6)" d="M-5,0L5,0" stroke="gray" stroke-width="1.5" opacity="1"/></g><g class="mark-text role-legend-label" pointer-events="none"><text text-anchor="start" transform="translate(16,9)" font-family="sans-serif" font-size="10px" fill="#000" opacity="1">connector</text></g></g><path class="foreground" aria-hidden="true" d="" pointer-events="none" display="none"/></g></g></g><path class="foreground" aria-hidden="true" d="" pointer-events="none" display="none"/></g></g><g class="mark-text role-legend-title" pointer-events="none"><text text-anchor="start" transform="translate(0,9)" font-family="sans-serif" font-size="11px" font-weight="bold" fill="#000" opacity="1">Connector</text></g></g><path class="foreground" aria-hidden="true" d="" pointer-events="none" display="none"/></g></g><g class="mark-group role-legend" role="graphics-symbol" aria-roledescription="legend" aria-label="Symbol legend titled 'Bus' for fill color with 1 value: bus"><g transform="translate(518,259)"><path class="background" aria-hidden="true" d="M0,0h34v27h-34Z" pointer-events="none"/><g><g class="mark-group role-legend-entry"><g transform="translate(0,16)"><path class="background" aria-hidden="true" d="M0,0h0v0h0Z" pointer-events="none"/><g><g class="mark-group role-scope" role="graphics-object" aria-roledescription="group mark container"><g transform="translate(0,0)"><path class="background" aria-hidden="true" d="M0,0h33.8955078125v11h-33.8955078125Z" pointer-events="none" opacity="1"/><g><g class="mark-symbol role-legend-symbol" pointer-events="none"><path transform="translate(6,6)" d="M5,0A5,5,0,1,1,-5,0A5,5,0,1,1,5,0" fill="#31A354" stroke-width="1.5" opacity="1"/></g><g class="mark-text role-legend-label" pointer-events="none"><text text-anchor="start" transform="translate(16,9)" font-family="sans-serif" font-size="10px" fill="#000" opacity="1">bus</text></g></g><path class="foreground" aria-hidden="true" d="" pointer-events="none" display="none"/></g></g></g><path class="foreground" aria-hidden="true" d="" pointer-events="none" display="none"/></g></g><g class="mark-text role-legend-title" pointer-events="none"><text text-anchor="start" transform="translate(0,9)" font-family="sans-serif" font-size="11px" font-weight="bold" fill="#000" opacity="1">Bus</text></g></g><path class="foreground" aria-hidden="true" d="" pointer-events="none" display="none"/></g></g><g class="mark-group role-legend" role="graphics-symbol" aria-roledescription="legend" aria-label="Symbol legend titled 'Gen' for fill color with 3 values: 0, 0.59, 3.4"><g transform="translate(518,294)"><path class="background" aria-hidden="true" d="M0,0h39v53h-39Z" pointer-events="none"/><g><g class="mark-group role-legend-entry"><g transform="translate(0,16)"><path class="background" aria-hidden="true" d="M0,0h0v0h0Z" pointer-events="none"/><g><g class="mark-group role-scope" role="graphics-object" aria-roledescription="group mark container"><g transform="translate(0,0)"><path class="background" aria-hidden="true" d="M0,0h38.265625v11h-38.265625Z" pointer-events="none" opacity="1"/><g><g class="mark-symbol role-legend-symbol" pointer-events="none"><path transform="translate(6,6)" d="M5,0A5,5,0,1,1,-5,0A5,5,0,1,1,5,0" fill="#E6550D" stroke-width="1.5" opacity="1"/></g><g class="mark-text role-legend-label" pointer-events="none"><text text-anchor="start" transform="translate(16,9)" font-family="sans-serif" font-size="10px" fill="#000" opacity="1">0</text></g></g><path class="foreground" aria-hidden="true" d="" pointer-events="none" display="none"/></g><g transform="translate(0,13)"><path class="background" aria-hidden="true" d="M0,0h38.265625v11h-38.265625Z" pointer-events="none" opacity="1"/><g><g class="mark-symbol role-legend-symbol" pointer-events="none"><path transform="translate(6,6)" d="M5,0A5,5,0,1,1,-5,0A5,5,0,1,1,5,0" fill="#EB7433" stroke-width="1.5" opacity="1"/></g><g class="mark-text role-legend-label" pointer-events="none"><text text-anchor="start" transform="translate(16,9)" font-family="sans-serif" font-size="10px" fill="#000" opacity="1">0.59</text></g></g><path class="foreground" aria-hidden="true" d="" pointer-events="none" display="none"/></g><g transform="translate(0,26)"><path class="background" aria-hidden="true" d="M0,0h38.265625v11h-38.265625Z" pointer-events="none" opacity="1"/><g><g class="mark-symbol role-legend-symbol" pointer-events="none"><path transform="translate(6,6)" d="M5,0A5,5,0,1,1,-5,0A5,5,0,1,1,5,0" fill="#F19358" stroke-width="1.5" opacity="1"/></g><g class="mark-text role-legend-label" pointer-events="none"><text text-anchor="start" transform="translate(16,9)" font-family="sans-serif" font-size="10px" fill="#000" opacity="1">3.4</text></g></g><path class="foreground" aria-hidden="true" d="" pointer-events="none" display="none"/></g></g></g><path class="foreground" aria-hidden="true" d="" pointer-events="none" display="none"/></g></g><g class="mark-text role-legend-title" pointer-events="none"><text text-anchor="start" transform="translate(0,9)" font-family="sans-serif" font-size="11px" font-weight="bold" fill="#000" opacity="1">Gen</text></g></g><path class="foreground" aria-hidden="true" d="" pointer-events="none" display="none"/></g></g><g class="mark-group role-legend" role="graphics-symbol" aria-roledescription="legend" aria-label="Symbol legend titled 'Load' for fill color with 1 value: load"><g transform="translate(518,355)"><path class="background" aria-hidden="true" d="M0,0h38v27h-38Z" pointer-events="none"/><g><g class="mark-group role-legend-entry"><g transform="translate(0,16)"><path class="background" aria-hidden="true" d="M0,0h0v0h0Z" pointer-events="none"/><g><g class="mark-group role-scope" role="graphics-object" aria-roledescription="group mark container"><g transform="translate(0,0)"><path class="background" aria-hidden="true" d="M0,0h37.3720703125v11h-37.3720703125Z" pointer-events="none" opacity="1"/><g><g class="mark-symbol role-legend-symbol" pointer-events="none"><path transform="translate(6,6)" d="M5,0A5,5,0,1,1,-5,0A5,5,0,1,1,5,0" fill="#CB181D" stroke-width="1.5" opacity="1"/></g><g class="mark-text role-legend-label" pointer-events="none"><text text-anchor="start" transform="translate(16,9)" font-family="sans-serif" font-size="10px" fill="#000" opacity="1">load</text></g></g><path class="foreground" aria-hidden="true" d="" pointer-events="none" display="none"/></g></g></g><path class="foreground" aria-hidden="true" d="" pointer-events="none" display="none"/></g></g><g class="mark-text role-legend-title" pointer-events="none"><text text-anchor="start" transform="translate(0,9)" font-family="sans-serif" font-size="11px" font-weight="bold" fill="#000" opacity="1">Load</text></g></g><path class="foreground" aria-hidden="true" d="" pointer-events="none" display="none"/></g></g></g><path class="foreground" aria-hidden="true" d="" display="none"/></g></g></g><defs><linearGradient id="gradient_0" x1="0" x2="0" y1="1" y2="0"><stop offset="0" stop-color="rgb(255, 209, 255)"/><stop offset="0.07692307692307693" stop-color="rgb(255, 193, 255)"/><stop offset="0.15875613747954176" stop-color="rgb(248, 177, 255)"/><stop offset="0.24058919803600656" stop-color="rgb(229, 161, 255)"/><stop offset="0.32242225859247137" stop-color="rgb(210, 144, 255)"/><stop offset="0.40425531914893614" stop-color="rgb(191, 129, 255)"/><stop offset="0.486088379705401" stop-color="rgb(172, 113, 255)"/><stop offset="0.5679214402618658" stop-color="rgb(153, 97, 255)"/><stop offset="0.6497545008183306" stop-color="rgb(133, 82, 255)"/><stop offset="0.7315875613747954" stop-color="rgb(112, 66, 255)"/><stop offset="0.8134206219312603" stop-color="rgb(90, 50, 255)"/><stop offset="0.8952536824877251" stop-color="rgb(64, 32, 255)"/><stop offset="0.9770867430441899" stop-color="rgb(25, 8, 255)"/><stop offset="1" stop-color="rgb(0, 0, 255)"/></linearGradient></defs></svg>